# xmcd CD database file
#
# Track frame offsets:
#	150
#	16914
#	34916
#	45538
#	63847
#	82991
#	106287
#	123578
#	145439
#	159786
#	174204
#	184755
#
# Disc length: 2691 seconds
#
# Revision: 3
# Processed by: cddbd v1.5.2PL0 Copyright (c) Steve Scherf et al.
# Submitted via: CDex 1.70beta3
#
DISCID=900a810c
DTITLE=木村カエラ - 5years Disc2
DYEAR=2010
DGENRE=Pop
TTITLE0=カメレオン2世
TTITLE1=Hey! Hey! Alright スチャダラパー＋木村カエラ
TTITLE2=OH PRETTY WOMAN
TTITLE3=言葉はさんかく こころは四角
TTITLE4=リリアン
TTITLE5=Cloudy
TTITLE6=ミラクル☆BANZAI　木村カエラfeat.ILMARI
TTITLE7=Forbidden Fruits　feat.KAELA KIMURA/Curly Giraffe
TTITLE8=darling
TTITLE9=おどるポンポコリン
TTITLE10=マシマロ
TTITLE11=Happy?
EXTD=YEAR: 2010
EXTT0=
EXTT1=
EXTT2=
EXTT3=
EXTT4=
EXTT5=
EXTT6=
EXTT7=
EXTT8=
EXTT9=
EXTT10=
EXTT11=
PLAYORDER=
